<?xml version="1.0" encoding="utf-8"?>
<!-- Generator: Adobe Illustrator 16.0.0, SVG Export Plug-In . SVG Version: 6.00 Build 0)  -->
<!DOCTYPE svg PUBLIC "-//W3C//DTD SVG 1.1//EN" "http://www.w3.org/Graphics/SVG/1.1/DTD/svg11.dtd">
<svg version="1.1" id="Capa_1" xmlns="http://www.w3.org/2000/svg" xmlns:xlink="http://www.w3.org/1999/xlink" x="0px" y="0px"
	 width="685px" height="438.828px" viewBox="177.5 123.086 685 438.828" enable-background="new 177.5 123.086 685 438.828"
	 xml:space="preserve">
<g>
	<g>
		<g>
			<path fill="#FFFAFF" d="M217.637,123.086c-10.703,0-17.393,0.893-20.068,2.676s-3.121,3.79-1.338,6.021
				s6.244,6.021,13.379,11.372c3.568,2.676,6.244,4.906,8.027,6.689L520,379.961l302.363-228.779l6.689-6.689
				c7.135-5.352,11.817-9.142,14.048-11.372s2.007-4.459-0.669-6.689s-9.365-3.345-20.068-3.345H499.932H217.637z"/>
			<path fill="#FFFAFF" d="M177.5,176.602v339.824c0,9.811,4.014,19.845,12.041,30.103s16.055,15.386,24.082,15.386h612.754
				c8.027,0,16.055-5.128,24.082-15.386s12.041-20.292,12.041-30.103V176.602L520,438.828L177.5,176.602z"/>
		</g>
	</g>
</g>
</svg>
