<?xml version="1.0" standalone="no"?>
<!DOCTYPE svg PUBLIC "-//W3C//DTD SVG 20010904//EN"
 "http://www.w3.org/TR/2001/REC-SVG-20010904/DTD/svg10.dtd">
<svg version="1.0" xmlns="http://www.w3.org/2000/svg"
 width="16.000000pt" height="16.000000pt" viewBox="0 0 16.000000 16.000000"
 preserveAspectRatio="xMidYMid meet">
<metadata>
Created by potrace 1.11, written by Peter Selinger 2001-2013
</metadata>
<g transform="translate(0.000000,16.000000) scale(0.007143,-0.007143)"
fill="#000000" stroke="none">
<path d="M1970 1936 c-110 -24 -210 -94 -367 -257 -192 -200 -361 -459 -433
-668 -70 -200 -56 -423 33 -535 70 -88 175 -128 331 -128 173 0 287 42 376
139 66 72 91 142 96 263 4 109 -12 177 -67 281 -48 90 -156 196 -244 240 -38
19 -72 35 -74 36 -16 9 361 540 429 603 3 3 11 13 19 23 12 15 11 17 -15 16
-16 0 -54 -6 -84 -13z m-392 -876 c71 -79 111 -265 81 -373 -15 -56 -59 -100
-97 -100 -78 0 -115 57 -116 181 0 93 7 141 35 235 30 101 36 112 57 95 9 -7
27 -24 40 -38z"/>
<path d="M590 1926 c-197 -56 -337 -249 -346 -476 -5 -146 28 -249 107 -335
53 -57 110 -92 199 -119 l69 -21 -33 -54 c-39 -62 -33 -53 -130 -194 -63 -90
-166 -224 -274 -358 l-22 -28 41 1 c63 1 134 23 192 60 254 162 556 548 667
853 48 129 64 263 46 374 -25 150 -121 258 -266 296 -61 16 -195 17 -250 1z
m159 -263 c45 -54 55 -128 35 -253 -12 -76 -47 -204 -62 -228 -18 -27 -77 5
-119 63 -45 64 -52 223 -14 329 45 128 102 160 160 89z"/>
</g>
</svg>
