<?xml version="1.0" encoding="utf-8"?>
<!-- Generator: Adobe Illustrator 16.0.0, SVG Export Plug-In . SVG Version: 6.00 Build 0)  -->
<!DOCTYPE svg PUBLIC "-//W3C//DTD SVG 1.1//EN" "http://www.w3.org/Graphics/SVG/1.1/DTD/svg11.dtd">
<svg version="1.1" xmlns="http://www.w3.org/2000/svg" xmlns:xlink="http://www.w3.org/1999/xlink" x="0px" y="0px"
	 width="238.932px" height="53.597px" viewBox="0 0 238.932 53.597" enable-background="new 0 0 238.932 53.597"
	 xml:space="preserve">
<g id="Layer_2">
</g>
<g id="Layer_1">
	<g>
		<path fill="none" stroke="#FFFFFF" stroke-width="2" stroke-miterlimit="10" d="M28.269,51.697
			c-0.288-0.216-0.48-0.468-0.576-0.756l-3.6-13.392c-0.144-0.432-0.409-0.792-0.792-1.08c-0.385-0.288-0.792-0.432-1.224-0.432
			H11.205c-0.336,0-0.612-0.108-0.828-0.324c-0.216-0.216-0.324-0.468-0.324-0.756v-5.544c0-0.288,0.108-0.551,0.324-0.792
			c0.216-0.24,0.492-0.36,0.828-0.36h8.64c0.432,0,0.779-0.155,1.044-0.468c0.263-0.312,0.324-0.684,0.18-1.116l-4.032-14.688
			c-0.097-0.383-0.336-0.72-0.72-1.008c-0.384-0.288-0.792-0.432-1.224-0.432h-0.504c-0.385,0-0.769,0.144-1.152,0.432
			c-0.385,0.288-0.624,0.625-0.72,1.008l-2.664,9.648c-0.097,0.288-0.277,0.504-0.54,0.648c-0.265,0.144-0.565,0.168-0.9,0.072
			l-6.768-1.656c-0.288-0.047-0.517-0.216-0.684-0.504c-0.169-0.288-0.205-0.576-0.108-0.864L5.589,2.701
			C5.684,2.413,5.888,2.15,6.201,1.909c0.312-0.24,0.612-0.36,0.9-0.36h15.48c0.288,0,0.6,0.108,0.936,0.324
			c0.335,0.216,0.551,0.468,0.648,0.756l13.248,48.384v0.144c0,0.576-0.288,0.864-0.864,0.864h-7.344
			C28.868,52.021,28.557,51.913,28.269,51.697z"/>
		<path fill="none" stroke="#FFFFFF" stroke-width="2" stroke-miterlimit="10" d="M47.492,50.581V3.205
			c0-0.624,0.095-1.02,0.288-1.188c0.191-0.167,0.624-0.252,1.296-0.252h13.536c2.64,0,5.076,0.648,7.308,1.944
			s4.007,3.06,5.328,5.292c1.319,2.232,1.98,4.692,1.98,7.38c0,2.929-0.792,5.544-2.376,7.848c2.448,1.393,4.367,3.24,5.76,5.544
			c1.392,2.304,2.088,4.8,2.088,7.488c0,2.64-0.648,5.076-1.944,7.308s-3.072,4.008-5.328,5.328c-2.256,1.321-4.728,1.98-7.416,1.98
			l-18.648,0.072C48.115,51.949,47.492,51.493,47.492,50.581z M62.756,22.573c1.68,0,3.12-0.612,4.32-1.836
			c1.199-1.224,1.8-2.675,1.8-4.356c0-1.728-0.625-3.204-1.872-4.428c-1.249-1.224-2.712-1.836-4.392-1.836h-5.256
			c-1.008,0-1.512,0.648-1.512,1.944v8.712c0,1.2,0.6,1.8,1.8,1.8H62.756z M67.22,43.525c1.775,0,3.263-0.6,4.464-1.8
			c1.199-1.199,1.8-2.688,1.8-4.464c0-1.775-0.601-3.264-1.8-4.464c-1.201-1.199-2.689-1.8-4.464-1.8h-9.576
			c-1.201,0-1.8,0.601-1.8,1.8v9c0,1.201,0.6,1.8,1.8,1.8L67.22,43.525z"/>
		<path fill="none" stroke="#FFFFFF" stroke-width="2" stroke-miterlimit="10" d="M94.4,44.137c-2.376-2.664-4.117-5.627-5.22-8.892
			l-0.144-0.36c-0.864-2.592-1.296-5.279-1.296-8.064c0-2.976,0.504-5.904,1.512-8.784c1.008-2.88,2.52-5.496,4.536-7.848
			c2.639-2.832,5.316-5.004,8.028-6.516c2.711-1.512,6.131-2.387,10.26-2.628h0.216c4.032-0.24,7.967,0.48,11.808,2.16
			c2.4,1.056,4.716,2.604,6.948,4.644c2.232,2.041,3.852,4.068,4.86,6.084c2.256,3.936,3.384,8.208,3.384,12.816
			c0,2.689-0.408,5.317-1.224,7.884c-0.817,2.568-2.016,4.957-3.6,7.164c-1.2,1.681-2.509,3.157-3.924,4.428
			c-1.417,1.272-3.157,2.46-5.22,3.564c-3.697,1.872-7.68,2.808-11.952,2.808c-3.648,0-7.128-0.72-10.44-2.16
			C99.62,48.901,96.776,46.801,94.4,44.137z M125.756,37.765c1.296-1.487,2.232-2.904,2.808-4.248
			c0.959-2.208,1.44-4.464,1.44-6.768c0-3.168-0.864-6.131-2.592-8.892c-1.728-2.76-4.104-4.812-7.128-6.156
			c-2.208-0.96-4.489-1.44-6.84-1.44c-2.113,0-4.14,0.384-6.084,1.152c-1.944,0.768-3.685,1.896-5.22,3.384l-1.224,1.296
			c-1.296,1.584-2.268,3.289-2.916,5.112c-0.648,1.825-0.972,3.697-0.972,5.616c0,2.401,0.504,4.716,1.512,6.948
			c1.008,2.232,2.472,4.116,4.392,5.652c3.12,2.592,6.671,3.888,10.656,3.888c2.639,0,5.112-0.576,7.416-1.728
			C122.876,40.526,124.46,39.253,125.756,37.765z"/>
		<path fill="none" stroke="#FFFFFF" stroke-width="2" stroke-miterlimit="10" d="M158.011,50.221
			c-2.736-1.584-4.92-3.732-6.552-6.444c-1.632-2.711-2.448-5.675-2.448-8.892V2.989c0-0.383,0.132-0.708,0.396-0.972
			c0.264-0.263,0.564-0.396,0.9-0.396h6.912c0.335,0,0.636,0.133,0.9,0.396c0.263,0.264,0.396,0.588,0.396,0.972v31.896
			c0,2.353,0.815,4.356,2.448,6.012c1.631,1.656,3.624,2.484,5.976,2.484c1.775,0,3.444-0.383,5.004-1.152
			c1.56-0.767,2.796-1.8,3.708-3.096c0.911-1.296,1.368-2.711,1.368-4.248V2.989c0-0.383,0.131-0.708,0.396-0.972
			c0.263-0.263,0.563-0.396,0.9-0.396h6.912c0.335,0,0.636,0.133,0.9,0.396c0.263,0.264,0.396,0.588,0.396,0.972v31.896
			c0,3.265-0.84,6.241-2.52,8.928c-1.681,2.689-4.008,4.824-6.984,6.408c-2.977,1.584-6.336,2.376-10.08,2.376
			C163.723,52.597,160.748,51.805,158.011,50.221z"/>
		<path fill="none" stroke="#FFFFFF" stroke-width="2" stroke-miterlimit="10" d="M213.056,51.733
			c-0.169-0.191-0.252-0.407-0.252-0.648V12.061c0-0.432-0.18-0.828-0.54-1.188s-0.781-0.54-1.26-0.54h-12.096
			c-0.192,0-0.385-0.096-0.576-0.288c-0.192-0.191-0.288-0.384-0.288-0.576V2.485c0-0.239,0.083-0.432,0.252-0.576
			c0.167-0.144,0.371-0.216,0.612-0.216h38.016c0.288,0,0.527,0.097,0.72,0.288c0.191,0.192,0.288,0.408,0.288,0.648v6.768
			c0,0.241-0.097,0.457-0.288,0.648c-0.192,0.192-0.432,0.288-0.72,0.288h-11.952c-0.48,0-0.889,0.169-1.224,0.504
			c-0.336,0.336-0.504,0.745-0.504,1.224v39.024c0,0.241-0.084,0.457-0.252,0.648c-0.169,0.192-0.396,0.288-0.684,0.288h-8.568
			C213.452,52.021,213.223,51.925,213.056,51.733z"/>
	</g>
</g>
</svg>
